<mxfile host="app.diagrams.net" modified="2023-06-12T20:18:32.565Z" agent="Mozilla/5.0 (Windows NT 10.0; Win64; x64) AppleWebKit/537.36 (KHTML, like Gecko) Chrome/114.0.0.0 Safari/537.36" etag="Y3coRfJPxFzyQz_G_p59" version="21.3.8" type="github">
  <diagram name="Página-1" id="r2xQb5WZQAOj9Y9dfqR0">
    <mxGraphModel dx="2036" dy="853" grid="1" gridSize="10" guides="1" tooltips="1" connect="1" arrows="1" fold="1" page="0" pageScale="1" pageWidth="827" pageHeight="1169" math="0" shadow="0">
      <root>
        <mxCell id="0" />
        <mxCell id="1" parent="0" />
        <mxCell id="rkdmeyJ-gslSqDaO4jJ8-1" value="&lt;font style=&quot;font-size: 20px;&quot;&gt;Início&lt;/font&gt;" style="ellipse;whiteSpace=wrap;html=1;" parent="1" vertex="1">
          <mxGeometry x="342.5" y="-120" width="120" height="80" as="geometry" />
        </mxCell>
        <mxCell id="U3ZBZgIVDwNOLRPqjOwI-8" value="" style="edgeStyle=orthogonalEdgeStyle;rounded=0;orthogonalLoop=1;jettySize=auto;html=1;" parent="1" source="rkdmeyJ-gslSqDaO4jJ8-3" target="U3ZBZgIVDwNOLRPqjOwI-6" edge="1">
          <mxGeometry relative="1" as="geometry" />
        </mxCell>
        <mxCell id="rkdmeyJ-gslSqDaO4jJ8-3" value="ValorTotalCompra &amp;lt;- Ler ()&lt;br&gt;ValorRecebido &amp;lt;- Ler ()" style="shape=parallelogram;perimeter=parallelogramPerimeter;whiteSpace=wrap;html=1;fixedSize=1;" parent="1" vertex="1">
          <mxGeometry x="292.5" y="10" width="220" height="70" as="geometry" />
        </mxCell>
        <mxCell id="rkdmeyJ-gslSqDaO4jJ8-4" value="Se ValorTroco &amp;gt;0&lt;br&gt;&amp;nbsp;" style="rhombus;whiteSpace=wrap;html=1;" parent="1" vertex="1">
          <mxGeometry x="310" y="240" width="180" height="115" as="geometry" />
        </mxCell>
        <mxCell id="rkdmeyJ-gslSqDaO4jJ8-15" value="" style="endArrow=classic;html=1;rounded=0;exitX=0.5;exitY=1;exitDx=0;exitDy=0;" parent="1" source="rkdmeyJ-gslSqDaO4jJ8-1" edge="1">
          <mxGeometry width="50" height="50" relative="1" as="geometry">
            <mxPoint x="399" y="80" as="sourcePoint" />
            <mxPoint x="403" y="20" as="targetPoint" />
            <Array as="points" />
          </mxGeometry>
        </mxCell>
        <mxCell id="rkdmeyJ-gslSqDaO4jJ8-17" value="" style="endArrow=classic;html=1;rounded=0;exitX=1;exitY=0.5;exitDx=0;exitDy=0;entryX=0;entryY=0.5;entryDx=0;entryDy=0;" parent="1" source="rkdmeyJ-gslSqDaO4jJ8-4" edge="1" target="U3ZBZgIVDwNOLRPqjOwI-9">
          <mxGeometry width="50" height="50" relative="1" as="geometry">
            <mxPoint x="520" y="240" as="sourcePoint" />
            <mxPoint x="570" y="282.5000000000002" as="targetPoint" />
            <Array as="points" />
          </mxGeometry>
        </mxCell>
        <mxCell id="rkdmeyJ-gslSqDaO4jJ8-19" value="Sim" style="rounded=0;html=1;strokeWidth=1;opacity=50;strokeColor=none;fillColor=#FFFFFF;fontColor=#ffffff;labelBackgroundColor=#000000;fontSize=15;" parent="1" vertex="1">
          <mxGeometry x="410" y="340" width="60" height="50" as="geometry" />
        </mxCell>
        <mxCell id="rkdmeyJ-gslSqDaO4jJ8-21" value="" style="endArrow=classic;html=1;rounded=0;exitX=0.5;exitY=1;exitDx=0;exitDy=0;entryX=0.473;entryY=0.007;entryDx=0;entryDy=0;entryPerimeter=0;" parent="1" target="rkdmeyJ-gslSqDaO4jJ8-40" edge="1">
          <mxGeometry width="50" height="50" relative="1" as="geometry">
            <mxPoint x="399.5" y="340" as="sourcePoint" />
            <mxPoint x="400" y="390" as="targetPoint" />
            <Array as="points" />
          </mxGeometry>
        </mxCell>
        <mxCell id="rkdmeyJ-gslSqDaO4jJ8-22" value="Não" style="rounded=0;html=1;strokeWidth=1;opacity=50;strokeColor=none;fillColor=#FFFFFF;fontColor=#ffffff;labelBackgroundColor=#000000;fontSize=15;" parent="1" vertex="1">
          <mxGeometry x="505" y="225" width="50" height="50" as="geometry" />
        </mxCell>
        <mxCell id="rkdmeyJ-gslSqDaO4jJ8-23" style="edgeStyle=orthogonalEdgeStyle;rounded=0;orthogonalLoop=1;jettySize=auto;html=1;exitX=0.5;exitY=1;exitDx=0;exitDy=0;" parent="1" source="rkdmeyJ-gslSqDaO4jJ8-4" target="rkdmeyJ-gslSqDaO4jJ8-4" edge="1">
          <mxGeometry relative="1" as="geometry" />
        </mxCell>
        <mxCell id="rkdmeyJ-gslSqDaO4jJ8-35" value="" style="edgeStyle=orthogonalEdgeStyle;rounded=0;orthogonalLoop=1;jettySize=auto;html=1;" parent="1" source="rkdmeyJ-gslSqDaO4jJ8-29" target="rkdmeyJ-gslSqDaO4jJ8-33" edge="1">
          <mxGeometry relative="1" as="geometry" />
        </mxCell>
        <mxCell id="rkdmeyJ-gslSqDaO4jJ8-29" value="Escrever(&quot;Seu troco é de &quot; +ValorTrocoOriginal + &quot; reais. Obrigado pela preferência e volte sempre!&quot;);" style="shape=parallelogram;perimeter=parallelogramPerimeter;whiteSpace=wrap;html=1;fixedSize=1;" parent="1" vertex="1">
          <mxGeometry x="90" y="1390" width="540" height="80" as="geometry" />
        </mxCell>
        <mxCell id="rkdmeyJ-gslSqDaO4jJ8-33" value="&lt;span style=&quot;font-size: 20px;&quot;&gt;FIM&lt;br&gt;&lt;/span&gt;" style="ellipse;whiteSpace=wrap;html=1;" parent="1" vertex="1">
          <mxGeometry x="330" y="1540" width="120" height="80" as="geometry" />
        </mxCell>
        <mxCell id="rkdmeyJ-gslSqDaO4jJ8-36" value="" style="edgeStyle=orthogonalEdgeStyle;rounded=0;orthogonalLoop=1;jettySize=auto;html=1;entryX=1;entryY=0.5;entryDx=0;entryDy=0;exitX=0.464;exitY=0.992;exitDx=0;exitDy=0;exitPerimeter=0;" parent="1" target="rkdmeyJ-gslSqDaO4jJ8-33" edge="1">
          <mxGeometry relative="1" as="geometry">
            <mxPoint x="662.0800000000004" y="312.02" as="sourcePoint" />
            <mxPoint x="550" y="760" as="targetPoint" />
            <Array as="points">
              <mxPoint x="660" y="312" />
              <mxPoint x="660" y="1580" />
            </Array>
          </mxGeometry>
        </mxCell>
        <mxCell id="rkdmeyJ-gslSqDaO4jJ8-39" value="" style="edgeStyle=orthogonalEdgeStyle;rounded=0;orthogonalLoop=1;jettySize=auto;html=1;" parent="1" target="rkdmeyJ-gslSqDaO4jJ8-4" edge="1">
          <mxGeometry relative="1" as="geometry">
            <Array as="points">
              <mxPoint x="400" y="190" />
              <mxPoint x="400" y="190" />
            </Array>
            <mxPoint x="400" y="180" as="sourcePoint" />
          </mxGeometry>
        </mxCell>
        <mxCell id="rkdmeyJ-gslSqDaO4jJ8-51" value="" style="edgeStyle=orthogonalEdgeStyle;rounded=0;orthogonalLoop=1;jettySize=auto;html=1;" parent="1" source="rkdmeyJ-gslSqDaO4jJ8-40" target="rkdmeyJ-gslSqDaO4jJ8-48" edge="1">
          <mxGeometry relative="1" as="geometry" />
        </mxCell>
        <mxCell id="rkdmeyJ-gslSqDaO4jJ8-40" value="ValorTrocoOriginal &amp;lt;- ValorTroco;&lt;br&gt;Cedula100 &amp;lt;- 100;&lt;br&gt;Cedula50 &amp;lt;- 50;&lt;br&gt;Cedula10 &amp;lt;- 10;&lt;br&gt;Cedula5 &amp;lt;- 5;&lt;br&gt;Cedula1 &amp;lt;- 1;" style="rounded=0;whiteSpace=wrap;html=1;" parent="1" vertex="1">
          <mxGeometry x="230" y="430" width="360" height="160" as="geometry" />
        </mxCell>
        <mxCell id="rkdmeyJ-gslSqDaO4jJ8-57" value="" style="edgeStyle=orthogonalEdgeStyle;rounded=0;orthogonalLoop=1;jettySize=auto;html=1;exitX=1;exitY=0.5;exitDx=0;exitDy=0;entryX=0.5;entryY=0;entryDx=0;entryDy=0;labelBackgroundColor=#FFFFFF;" parent="1" source="rkdmeyJ-gslSqDaO4jJ8-48" target="rkdmeyJ-gslSqDaO4jJ8-54" edge="1">
          <mxGeometry relative="1" as="geometry" />
        </mxCell>
        <mxCell id="rkdmeyJ-gslSqDaO4jJ8-59" style="edgeStyle=orthogonalEdgeStyle;rounded=0;orthogonalLoop=1;jettySize=auto;html=1;exitX=0;exitY=0.5;exitDx=0;exitDy=0;" parent="1" source="rkdmeyJ-gslSqDaO4jJ8-48" target="rkdmeyJ-gslSqDaO4jJ8-60" edge="1">
          <mxGeometry relative="1" as="geometry">
            <mxPoint x="200" y="910" as="targetPoint" />
            <Array as="points">
              <mxPoint x="113" y="780" />
            </Array>
          </mxGeometry>
        </mxCell>
        <mxCell id="rkdmeyJ-gslSqDaO4jJ8-48" value="Valor&lt;br&gt;Se&amp;nbsp;&lt;br&gt;ValorTroco &amp;gt;= Cedula100" style="rhombus;whiteSpace=wrap;html=1;" parent="1" vertex="1">
          <mxGeometry x="302.5" y="690" width="215" height="180" as="geometry" />
        </mxCell>
        <mxCell id="rkdmeyJ-gslSqDaO4jJ8-58" style="edgeStyle=orthogonalEdgeStyle;rounded=0;orthogonalLoop=1;jettySize=auto;html=1;exitX=0.5;exitY=1;exitDx=0;exitDy=0;" parent="1" source="rkdmeyJ-gslSqDaO4jJ8-52" target="rkdmeyJ-gslSqDaO4jJ8-48" edge="1">
          <mxGeometry relative="1" as="geometry">
            <mxPoint x="710" y="720" as="targetPoint" />
          </mxGeometry>
        </mxCell>
        <mxCell id="rkdmeyJ-gslSqDaO4jJ8-52" value="&lt;font style=&quot;vertical-align: inherit;&quot;&gt;&lt;font style=&quot;vertical-align: inherit;&quot;&gt;ValorTroco &amp;lt;- ValorTroco - Cedula100;&lt;/font&gt;&lt;/font&gt;" style="whiteSpace=wrap;html=1;" parent="1" vertex="1">
          <mxGeometry x="490" y="950" width="170" height="60" as="geometry" />
        </mxCell>
        <mxCell id="rkdmeyJ-gslSqDaO4jJ8-56" style="edgeStyle=orthogonalEdgeStyle;rounded=0;orthogonalLoop=1;jettySize=auto;html=1;exitX=0.5;exitY=1;exitDx=0;exitDy=0;" parent="1" source="rkdmeyJ-gslSqDaO4jJ8-54" target="rkdmeyJ-gslSqDaO4jJ8-52" edge="1">
          <mxGeometry relative="1" as="geometry" />
        </mxCell>
        <mxCell id="rkdmeyJ-gslSqDaO4jJ8-54" value="Escrever(Cedula100);" style="shape=parallelogram;perimeter=parallelogramPerimeter;whiteSpace=wrap;html=1;fixedSize=1;" parent="1" vertex="1">
          <mxGeometry x="490" y="840" width="170" height="60" as="geometry" />
        </mxCell>
        <mxCell id="rkdmeyJ-gslSqDaO4jJ8-67" style="edgeStyle=orthogonalEdgeStyle;rounded=0;orthogonalLoop=1;jettySize=auto;html=1;" parent="1" source="rkdmeyJ-gslSqDaO4jJ8-60" target="rkdmeyJ-gslSqDaO4jJ8-66" edge="1">
          <mxGeometry relative="1" as="geometry">
            <Array as="points">
              <mxPoint x="293" y="880" />
            </Array>
          </mxGeometry>
        </mxCell>
        <mxCell id="rkdmeyJ-gslSqDaO4jJ8-60" value="Se ValorTroco&amp;gt;= Cedula50" style="rhombus;whiteSpace=wrap;html=1;" parent="1" vertex="1">
          <mxGeometry x="17.5" y="840" width="190" height="80" as="geometry" />
        </mxCell>
        <mxCell id="rkdmeyJ-gslSqDaO4jJ8-61" value="Sim" style="rounded=0;html=1;strokeWidth=1;opacity=50;strokeColor=none;fillColor=#FFFFFF;fontColor=#ffffff;labelBackgroundColor=#000000;fontSize=15;" parent="1" vertex="1">
          <mxGeometry x="545" y="730" width="60" height="50" as="geometry" />
        </mxCell>
        <mxCell id="rkdmeyJ-gslSqDaO4jJ8-62" value="Não" style="rounded=0;html=1;strokeWidth=1;opacity=50;strokeColor=none;fillColor=#FFFFFF;fontColor=#ffffff;labelBackgroundColor=#000000;fontSize=15;" parent="1" vertex="1">
          <mxGeometry x="195" y="740" width="70" height="50" as="geometry" />
        </mxCell>
        <mxCell id="rkdmeyJ-gslSqDaO4jJ8-88" value="" style="edgeStyle=orthogonalEdgeStyle;rounded=0;orthogonalLoop=1;jettySize=auto;html=1;entryX=0.5;entryY=1;entryDx=0;entryDy=0;exitX=0;exitY=0.5;exitDx=0;exitDy=0;" parent="1" source="rkdmeyJ-gslSqDaO4jJ8-64" target="rkdmeyJ-gslSqDaO4jJ8-60" edge="1">
          <mxGeometry relative="1" as="geometry">
            <mxPoint x="292" y="1090" as="sourcePoint" />
          </mxGeometry>
        </mxCell>
        <mxCell id="rkdmeyJ-gslSqDaO4jJ8-64" value="&lt;font style=&quot;vertical-align: inherit;&quot;&gt;&lt;font style=&quot;vertical-align: inherit;&quot;&gt;ValorTroco &amp;lt;- ValorTroco - Cedula50;&lt;/font&gt;&lt;/font&gt;" style="whiteSpace=wrap;html=1;" parent="1" vertex="1">
          <mxGeometry x="207.5" y="1020" width="170" height="60" as="geometry" />
        </mxCell>
        <mxCell id="rkdmeyJ-gslSqDaO4jJ8-65" style="edgeStyle=orthogonalEdgeStyle;rounded=0;orthogonalLoop=1;jettySize=auto;html=1;exitX=0.5;exitY=1;exitDx=0;exitDy=0;" parent="1" source="rkdmeyJ-gslSqDaO4jJ8-66" target="rkdmeyJ-gslSqDaO4jJ8-64" edge="1">
          <mxGeometry relative="1" as="geometry" />
        </mxCell>
        <mxCell id="rkdmeyJ-gslSqDaO4jJ8-66" value="Escrever(Cedula50);" style="shape=parallelogram;perimeter=parallelogramPerimeter;whiteSpace=wrap;html=1;fixedSize=1;" parent="1" vertex="1">
          <mxGeometry x="207.5" y="910" width="170" height="60" as="geometry" />
        </mxCell>
        <mxCell id="rkdmeyJ-gslSqDaO4jJ8-68" value="Sim" style="rounded=0;html=1;strokeWidth=1;opacity=50;strokeColor=none;fillColor=#FFFFFF;fontColor=#ffffff;labelBackgroundColor=#000000;fontSize=15;" parent="1" vertex="1">
          <mxGeometry x="220" y="840" width="60" height="50" as="geometry" />
        </mxCell>
        <mxCell id="rkdmeyJ-gslSqDaO4jJ8-69" style="edgeStyle=orthogonalEdgeStyle;rounded=0;orthogonalLoop=1;jettySize=auto;html=1;" parent="1" source="rkdmeyJ-gslSqDaO4jJ8-70" target="rkdmeyJ-gslSqDaO4jJ8-73" edge="1">
          <mxGeometry relative="1" as="geometry">
            <Array as="points">
              <mxPoint x="8.5" y="965" />
            </Array>
          </mxGeometry>
        </mxCell>
        <mxCell id="rkdmeyJ-gslSqDaO4jJ8-86" value="" style="edgeStyle=orthogonalEdgeStyle;rounded=0;orthogonalLoop=1;jettySize=auto;html=1;exitX=0;exitY=0.5;exitDx=0;exitDy=0;" parent="1" source="rkdmeyJ-gslSqDaO4jJ8-70" target="rkdmeyJ-gslSqDaO4jJ8-80" edge="1">
          <mxGeometry relative="1" as="geometry">
            <mxPoint x="-284.5" y="960" as="sourcePoint" />
            <Array as="points">
              <mxPoint x="-474" y="965" />
            </Array>
          </mxGeometry>
        </mxCell>
        <mxCell id="rkdmeyJ-gslSqDaO4jJ8-70" value="Se ValorTroco&amp;gt;= Cedula10" style="rhombus;whiteSpace=wrap;html=1;" parent="1" vertex="1">
          <mxGeometry x="-254.5" y="920" width="190" height="90" as="geometry" />
        </mxCell>
        <mxCell id="rkdmeyJ-gslSqDaO4jJ8-91" style="edgeStyle=orthogonalEdgeStyle;rounded=0;orthogonalLoop=1;jettySize=auto;html=1;entryX=0.5;entryY=1;entryDx=0;entryDy=0;" parent="1" source="rkdmeyJ-gslSqDaO4jJ8-71" target="rkdmeyJ-gslSqDaO4jJ8-70" edge="1">
          <mxGeometry relative="1" as="geometry">
            <mxPoint x="-150" y="1020" as="targetPoint" />
            <Array as="points">
              <mxPoint x="-160" y="1130" />
            </Array>
          </mxGeometry>
        </mxCell>
        <mxCell id="rkdmeyJ-gslSqDaO4jJ8-71" value="ValorTroco &amp;lt;- ValorTroco - Cedula10;" style="whiteSpace=wrap;html=1;" parent="1" vertex="1">
          <mxGeometry x="-77" y="1100" width="170" height="60" as="geometry" />
        </mxCell>
        <mxCell id="rkdmeyJ-gslSqDaO4jJ8-72" style="edgeStyle=orthogonalEdgeStyle;rounded=0;orthogonalLoop=1;jettySize=auto;html=1;exitX=0.5;exitY=1;exitDx=0;exitDy=0;" parent="1" source="rkdmeyJ-gslSqDaO4jJ8-73" target="rkdmeyJ-gslSqDaO4jJ8-71" edge="1">
          <mxGeometry relative="1" as="geometry" />
        </mxCell>
        <mxCell id="rkdmeyJ-gslSqDaO4jJ8-73" value="Escrever(Cedula10);" style="shape=parallelogram;perimeter=parallelogramPerimeter;whiteSpace=wrap;html=1;fixedSize=1;" parent="1" vertex="1">
          <mxGeometry x="-77" y="991" width="170" height="60" as="geometry" />
        </mxCell>
        <mxCell id="rkdmeyJ-gslSqDaO4jJ8-74" value="Sim" style="rounded=0;html=1;strokeWidth=1;opacity=50;strokeColor=none;fillColor=#FFFFFF;fontColor=#ffffff;labelBackgroundColor=#000000;fontSize=15;" parent="1" vertex="1">
          <mxGeometry x="-64.5" y="920" width="60" height="50" as="geometry" />
        </mxCell>
        <mxCell id="rkdmeyJ-gslSqDaO4jJ8-77" style="edgeStyle=orthogonalEdgeStyle;rounded=0;orthogonalLoop=1;jettySize=auto;html=1;exitX=0;exitY=0.5;exitDx=0;exitDy=0;entryX=0.5;entryY=0;entryDx=0;entryDy=0;" parent="1" source="rkdmeyJ-gslSqDaO4jJ8-60" target="rkdmeyJ-gslSqDaO4jJ8-70" edge="1">
          <mxGeometry relative="1" as="geometry">
            <mxPoint x="-194.5" y="910" as="targetPoint" />
            <mxPoint x="-7" y="880" as="sourcePoint" />
            <Array as="points">
              <mxPoint x="-159" y="880" />
            </Array>
          </mxGeometry>
        </mxCell>
        <mxCell id="rkdmeyJ-gslSqDaO4jJ8-78" value="Não" style="rounded=0;html=1;strokeWidth=1;opacity=50;strokeColor=none;fillColor=#FFFFFF;fontColor=#ffffff;labelBackgroundColor=#000000;fontSize=15;" parent="1" vertex="1">
          <mxGeometry x="-94.5" y="830" width="70" height="50" as="geometry" />
        </mxCell>
        <mxCell id="rkdmeyJ-gslSqDaO4jJ8-79" style="edgeStyle=orthogonalEdgeStyle;rounded=0;orthogonalLoop=1;jettySize=auto;html=1;" parent="1" source="rkdmeyJ-gslSqDaO4jJ8-80" target="rkdmeyJ-gslSqDaO4jJ8-83" edge="1">
          <mxGeometry relative="1" as="geometry">
            <Array as="points">
              <mxPoint x="-291.5" y="1050" />
            </Array>
          </mxGeometry>
        </mxCell>
        <mxCell id="rkdmeyJ-gslSqDaO4jJ8-80" value="Se ValorTroco&amp;gt;= Cedula5" style="rhombus;whiteSpace=wrap;html=1;" parent="1" vertex="1">
          <mxGeometry x="-569" y="1005" width="190" height="90" as="geometry" />
        </mxCell>
        <mxCell id="rkdmeyJ-gslSqDaO4jJ8-108" style="edgeStyle=orthogonalEdgeStyle;rounded=0;orthogonalLoop=1;jettySize=auto;html=1;entryX=0.5;entryY=1;entryDx=0;entryDy=0;" parent="1" source="rkdmeyJ-gslSqDaO4jJ8-81" target="rkdmeyJ-gslSqDaO4jJ8-80" edge="1">
          <mxGeometry relative="1" as="geometry" />
        </mxCell>
        <mxCell id="rkdmeyJ-gslSqDaO4jJ8-81" value="ValorTroco &amp;lt;- ValorTroco - Cedula5;" style="whiteSpace=wrap;html=1;" parent="1" vertex="1">
          <mxGeometry x="-364.5" y="1155" width="170" height="60" as="geometry" />
        </mxCell>
        <mxCell id="rkdmeyJ-gslSqDaO4jJ8-82" style="edgeStyle=orthogonalEdgeStyle;rounded=0;orthogonalLoop=1;jettySize=auto;html=1;exitX=0.5;exitY=1;exitDx=0;exitDy=0;" parent="1" source="rkdmeyJ-gslSqDaO4jJ8-83" target="rkdmeyJ-gslSqDaO4jJ8-81" edge="1">
          <mxGeometry relative="1" as="geometry" />
        </mxCell>
        <mxCell id="rkdmeyJ-gslSqDaO4jJ8-83" value="Escrever(Cedula5);" style="shape=parallelogram;perimeter=parallelogramPerimeter;whiteSpace=wrap;html=1;fixedSize=1;" parent="1" vertex="1">
          <mxGeometry x="-364.5" y="1065" width="170" height="60" as="geometry" />
        </mxCell>
        <mxCell id="rkdmeyJ-gslSqDaO4jJ8-84" value="Sim" style="rounded=0;html=1;strokeWidth=1;opacity=50;strokeColor=none;fillColor=#FFFFFF;fontColor=#ffffff;labelBackgroundColor=#000000;fontSize=15;" parent="1" vertex="1">
          <mxGeometry x="-364.5" y="1005" width="60" height="50" as="geometry" />
        </mxCell>
        <mxCell id="rkdmeyJ-gslSqDaO4jJ8-101" value="" style="edgeStyle=orthogonalEdgeStyle;rounded=0;orthogonalLoop=1;jettySize=auto;html=1;exitX=0;exitY=0.5;exitDx=0;exitDy=0;" parent="1" target="rkdmeyJ-gslSqDaO4jJ8-103" edge="1">
          <mxGeometry relative="1" as="geometry">
            <mxPoint x="-565" y="1050" as="sourcePoint" />
            <Array as="points">
              <mxPoint x="-785" y="1050" />
            </Array>
          </mxGeometry>
        </mxCell>
        <mxCell id="rkdmeyJ-gslSqDaO4jJ8-102" style="edgeStyle=orthogonalEdgeStyle;rounded=0;orthogonalLoop=1;jettySize=auto;html=1;" parent="1" source="rkdmeyJ-gslSqDaO4jJ8-103" target="rkdmeyJ-gslSqDaO4jJ8-106" edge="1">
          <mxGeometry relative="1" as="geometry">
            <Array as="points">
              <mxPoint x="-602.5" y="1135" />
            </Array>
          </mxGeometry>
        </mxCell>
        <mxCell id="rkdmeyJ-gslSqDaO4jJ8-103" value="Se ValorTroco&amp;gt;= Cedula1" style="rhombus;whiteSpace=wrap;html=1;" parent="1" vertex="1">
          <mxGeometry x="-880" y="1090" width="190" height="90" as="geometry" />
        </mxCell>
        <mxCell id="rkdmeyJ-gslSqDaO4jJ8-109" style="edgeStyle=orthogonalEdgeStyle;rounded=0;orthogonalLoop=1;jettySize=auto;html=1;entryX=0.5;entryY=1;entryDx=0;entryDy=0;" parent="1" source="rkdmeyJ-gslSqDaO4jJ8-104" target="rkdmeyJ-gslSqDaO4jJ8-103" edge="1">
          <mxGeometry relative="1" as="geometry" />
        </mxCell>
        <mxCell id="rkdmeyJ-gslSqDaO4jJ8-104" value="ValorTroco &amp;lt;- ValorTroco - Cedula1;" style="whiteSpace=wrap;html=1;" parent="1" vertex="1">
          <mxGeometry x="-675.5" y="1240" width="170" height="60" as="geometry" />
        </mxCell>
        <mxCell id="rkdmeyJ-gslSqDaO4jJ8-105" style="edgeStyle=orthogonalEdgeStyle;rounded=0;orthogonalLoop=1;jettySize=auto;html=1;exitX=0.5;exitY=1;exitDx=0;exitDy=0;" parent="1" source="rkdmeyJ-gslSqDaO4jJ8-106" target="rkdmeyJ-gslSqDaO4jJ8-104" edge="1">
          <mxGeometry relative="1" as="geometry" />
        </mxCell>
        <mxCell id="rkdmeyJ-gslSqDaO4jJ8-106" value="Escrever(Cedula1);" style="shape=parallelogram;perimeter=parallelogramPerimeter;whiteSpace=wrap;html=1;fixedSize=1;" parent="1" vertex="1">
          <mxGeometry x="-675.5" y="1150" width="170" height="60" as="geometry" />
        </mxCell>
        <mxCell id="rkdmeyJ-gslSqDaO4jJ8-107" value="Sim" style="rounded=0;html=1;strokeWidth=1;opacity=50;strokeColor=none;fillColor=#FFFFFF;fontColor=#ffffff;labelBackgroundColor=#000000;fontSize=15;" parent="1" vertex="1">
          <mxGeometry x="-675.5" y="1090" width="60" height="50" as="geometry" />
        </mxCell>
        <mxCell id="rkdmeyJ-gslSqDaO4jJ8-112" value="Não" style="rounded=0;html=1;strokeWidth=1;opacity=50;strokeColor=none;fillColor=#FFFFFF;fontColor=#ffffff;labelBackgroundColor=#000000;fontSize=15;" parent="1" vertex="1">
          <mxGeometry x="-364.5" y="920" width="70" height="50" as="geometry" />
        </mxCell>
        <mxCell id="rkdmeyJ-gslSqDaO4jJ8-113" value="Não" style="rounded=0;html=1;strokeWidth=1;opacity=50;strokeColor=none;fillColor=#FFFFFF;fontColor=#ffffff;labelBackgroundColor=#000000;fontSize=15;" parent="1" vertex="1">
          <mxGeometry x="-685.5" y="1005" width="70" height="50" as="geometry" />
        </mxCell>
        <mxCell id="U3ZBZgIVDwNOLRPqjOwI-1" value="" style="edgeStyle=orthogonalEdgeStyle;rounded=0;orthogonalLoop=1;jettySize=auto;html=1;exitX=0;exitY=0.5;exitDx=0;exitDy=0;" parent="1" source="rkdmeyJ-gslSqDaO4jJ8-103" target="rkdmeyJ-gslSqDaO4jJ8-29" edge="1">
          <mxGeometry relative="1" as="geometry">
            <mxPoint x="-880" y="1130" as="sourcePoint" />
            <Array as="points">
              <mxPoint x="-1100" y="1135" />
              <mxPoint x="-1100" y="1430" />
            </Array>
            <mxPoint x="-1100" y="1170" as="targetPoint" />
          </mxGeometry>
        </mxCell>
        <mxCell id="U3ZBZgIVDwNOLRPqjOwI-2" value="Não" style="rounded=0;html=1;strokeWidth=1;opacity=50;strokeColor=none;fillColor=#FFFFFF;fontColor=#ffffff;labelBackgroundColor=#000000;fontSize=15;" parent="1" vertex="1">
          <mxGeometry x="-990" y="1080" width="70" height="50" as="geometry" />
        </mxCell>
        <mxCell id="U3ZBZgIVDwNOLRPqjOwI-6" value="ValorTroco &amp;lt;- ValorRecebido - ValorTotalCompra" style="rounded=0;whiteSpace=wrap;html=1;" parent="1" vertex="1">
          <mxGeometry x="312.5" y="120" width="180" height="80" as="geometry" />
        </mxCell>
        <mxCell id="U3ZBZgIVDwNOLRPqjOwI-9" value="//Não tem troco&lt;br&gt;Exibir (&quot;Obrigado pela preferência. Volte sempre!&quot;)" style="shape=document;whiteSpace=wrap;html=1;boundedLbl=1;" parent="1" vertex="1">
          <mxGeometry x="570" y="250" width="210" height="80" as="geometry" />
        </mxCell>
        <mxCell id="YnYCFKzmy0si7NrQEA58-1" value="&lt;font style=&quot;font-size: 20px;&quot;&gt;Início&lt;/font&gt;" style="ellipse;whiteSpace=wrap;html=1;" parent="1" vertex="1">
          <mxGeometry x="-300" y="2410" width="120" height="80" as="geometry" />
        </mxCell>
        <mxCell id="YnYCFKzmy0si7NrQEA58-2" value="" style="edgeStyle=orthogonalEdgeStyle;rounded=0;orthogonalLoop=1;jettySize=auto;html=1;" parent="1" source="YnYCFKzmy0si7NrQEA58-3" target="YnYCFKzmy0si7NrQEA58-16" edge="1">
          <mxGeometry relative="1" as="geometry" />
        </mxCell>
        <mxCell id="YnYCFKzmy0si7NrQEA58-3" value="N1 &amp;lt;- Ler();&lt;br&gt;N2 &amp;lt;- Ler();&lt;br&gt;N3 &amp;lt;- Ler();&lt;br&gt;N4 &amp;lt;- Ler();" style="shape=parallelogram;perimeter=parallelogramPerimeter;whiteSpace=wrap;html=1;fixedSize=1;" parent="1" vertex="1">
          <mxGeometry x="-350" y="2560" width="220" height="70" as="geometry" />
        </mxCell>
        <mxCell id="YnYCFKzmy0si7NrQEA58-4" value="" style="edgeStyle=orthogonalEdgeStyle;rounded=0;orthogonalLoop=1;jettySize=auto;html=1;" parent="1" source="YnYCFKzmy0si7NrQEA58-5" target="YnYCFKzmy0si7NrQEA58-12" edge="1">
          <mxGeometry relative="1" as="geometry" />
        </mxCell>
        <mxCell id="YnYCFKzmy0si7NrQEA58-5" value="Se Media &amp;gt;= MediaDeAprovação" style="rhombus;whiteSpace=wrap;html=1;" parent="1" vertex="1">
          <mxGeometry x="-345" y="2777.5" width="210" height="125" as="geometry" />
        </mxCell>
        <mxCell id="YnYCFKzmy0si7NrQEA58-6" value="" style="endArrow=classic;html=1;rounded=0;exitX=0.5;exitY=1;exitDx=0;exitDy=0;" parent="1" source="YnYCFKzmy0si7NrQEA58-1" edge="1">
          <mxGeometry width="50" height="50" relative="1" as="geometry">
            <mxPoint x="-243.5" y="2630" as="sourcePoint" />
            <mxPoint x="-239.5" y="2560" as="targetPoint" />
            <Array as="points" />
          </mxGeometry>
        </mxCell>
        <mxCell id="YnYCFKzmy0si7NrQEA58-7" value="" style="endArrow=classic;html=1;rounded=0;exitX=1;exitY=0.5;exitDx=0;exitDy=0;" parent="1" source="YnYCFKzmy0si7NrQEA58-5" edge="1">
          <mxGeometry width="50" height="50" relative="1" as="geometry">
            <mxPoint x="-122.5" y="2790" as="sourcePoint" />
            <mxPoint x="-72.5" y="2840" as="targetPoint" />
            <Array as="points" />
          </mxGeometry>
        </mxCell>
        <mxCell id="YnYCFKzmy0si7NrQEA58-8" value="Sim" style="rounded=0;html=1;strokeWidth=1;opacity=50;strokeColor=none;fillColor=#FFFFFF;fontColor=#ffffff;labelBackgroundColor=#000000;fontSize=15;" parent="1" vertex="1">
          <mxGeometry x="-142.5" y="2790" width="60" height="50" as="geometry" />
        </mxCell>
        <mxCell id="YnYCFKzmy0si7NrQEA58-9" value="Não" style="rounded=0;html=1;strokeWidth=1;opacity=50;strokeColor=none;fillColor=#FFFFFF;fontColor=#ffffff;labelBackgroundColor=#000000;fontSize=15;" parent="1" vertex="1">
          <mxGeometry x="-232.5" y="2880" width="70" height="50" as="geometry" />
        </mxCell>
        <mxCell id="YnYCFKzmy0si7NrQEA58-10" style="edgeStyle=orthogonalEdgeStyle;rounded=0;orthogonalLoop=1;jettySize=auto;html=1;exitX=0.5;exitY=1;exitDx=0;exitDy=0;" parent="1" source="YnYCFKzmy0si7NrQEA58-5" target="YnYCFKzmy0si7NrQEA58-5" edge="1">
          <mxGeometry relative="1" as="geometry" />
        </mxCell>
        <mxCell id="YnYCFKzmy0si7NrQEA58-11" value="" style="endArrow=classic;html=1;rounded=0;exitX=0.5;exitY=1;exitDx=0;exitDy=0;" parent="1" edge="1">
          <mxGeometry width="50" height="50" relative="1" as="geometry">
            <mxPoint x="-243" y="3010" as="sourcePoint" />
            <mxPoint x="-243" y="3050" as="targetPoint" />
            <Array as="points" />
          </mxGeometry>
        </mxCell>
        <mxCell id="YnYCFKzmy0si7NrQEA58-12" value="FaltaramPontos &amp;lt;- MediaDeAprovação - media" style="rounded=0;whiteSpace=wrap;html=1;" parent="1" vertex="1">
          <mxGeometry x="-310" y="2940" width="140" height="80" as="geometry" />
        </mxCell>
        <mxCell id="YnYCFKzmy0si7NrQEA58-13" value="&lt;span style=&quot;font-size: 20px;&quot;&gt;FIM&lt;br&gt;&lt;/span&gt;" style="ellipse;whiteSpace=wrap;html=1;" parent="1" vertex="1">
          <mxGeometry x="-300" y="3180" width="120" height="80" as="geometry" />
        </mxCell>
        <mxCell id="YnYCFKzmy0si7NrQEA58-15" value="" style="edgeStyle=orthogonalEdgeStyle;rounded=0;orthogonalLoop=1;jettySize=auto;html=1;" parent="1" target="YnYCFKzmy0si7NrQEA58-5" edge="1">
          <mxGeometry relative="1" as="geometry">
            <Array as="points">
              <mxPoint x="-242.5" y="2740" />
              <mxPoint x="-242.5" y="2740" />
            </Array>
            <mxPoint x="-242.5" y="2730" as="sourcePoint" />
          </mxGeometry>
        </mxCell>
        <mxCell id="YnYCFKzmy0si7NrQEA58-16" value="Media &amp;lt;- (N1+N2+N3+N4)/4&lt;br&gt;Const MediaDeAprovação &amp;lt;- 8" style="rounded=0;whiteSpace=wrap;html=1;" parent="1" vertex="1">
          <mxGeometry x="-330" y="2670" width="180" height="80" as="geometry" />
        </mxCell>
        <mxCell id="AUrWlwkpLpSwjgOGeYuH-26" style="edgeStyle=orthogonalEdgeStyle;rounded=0;orthogonalLoop=1;jettySize=auto;html=1;" parent="1" source="YnYCFKzmy0si7NrQEA58-17" target="YnYCFKzmy0si7NrQEA58-13" edge="1">
          <mxGeometry relative="1" as="geometry" />
        </mxCell>
        <mxCell id="YnYCFKzmy0si7NrQEA58-17" value="&lt;font style=&quot;vertical-align: inherit;&quot;&gt;&lt;font style=&quot;vertical-align: inherit;&quot;&gt;&lt;font style=&quot;vertical-align: inherit;&quot;&gt;&lt;font style=&quot;vertical-align: inherit;&quot;&gt;&lt;font style=&quot;vertical-align: inherit;&quot;&gt;&lt;font style=&quot;vertical-align: inherit;&quot;&gt;&lt;font style=&quot;vertical-align: inherit;&quot;&gt;&lt;font style=&quot;vertical-align: inherit;&quot;&gt;&lt;font style=&quot;vertical-align: inherit;&quot;&gt;&lt;font style=&quot;vertical-align: inherit;&quot;&gt;&lt;font style=&quot;vertical-align: inherit;&quot;&gt;&lt;font style=&quot;vertical-align: inherit;&quot;&gt;&quot;Parabéns! &lt;/font&gt;&lt;/font&gt;&lt;/font&gt;&lt;/font&gt;&lt;/font&gt;&lt;/font&gt;&lt;/font&gt;&lt;/font&gt;&lt;/font&gt;&lt;/font&gt;&lt;/font&gt;&lt;/font&gt;&lt;br&gt;&lt;font style=&quot;vertical-align: inherit;&quot;&gt;&lt;font style=&quot;vertical-align: inherit;&quot;&gt;&lt;font style=&quot;vertical-align: inherit;&quot;&gt;&lt;font style=&quot;vertical-align: inherit;&quot;&gt;&lt;font style=&quot;vertical-align: inherit;&quot;&gt;&lt;font style=&quot;vertical-align: inherit;&quot;&gt;&lt;font style=&quot;vertical-align: inherit;&quot;&gt;&lt;font style=&quot;vertical-align: inherit;&quot;&gt;&lt;font style=&quot;vertical-align: inherit;&quot;&gt;&lt;font style=&quot;vertical-align: inherit;&quot;&gt;&lt;font style=&quot;vertical-align: inherit;&quot;&gt;&lt;font style=&quot;vertical-align: inherit;&quot;&gt;Você foi aprovado! &lt;/font&gt;&lt;/font&gt;&lt;/font&gt;&lt;/font&gt;&lt;/font&gt;&lt;/font&gt;&lt;/font&gt;&lt;/font&gt;&lt;/font&gt;&lt;/font&gt;&lt;/font&gt;&lt;/font&gt;&lt;br&gt;&lt;font style=&quot;vertical-align: inherit;&quot;&gt;&lt;font style=&quot;vertical-align: inherit;&quot;&gt;&lt;font style=&quot;vertical-align: inherit;&quot;&gt;&lt;font style=&quot;vertical-align: inherit;&quot;&gt;&lt;font style=&quot;vertical-align: inherit;&quot;&gt;&lt;font style=&quot;vertical-align: inherit;&quot;&gt;&lt;font style=&quot;vertical-align: inherit;&quot;&gt;&lt;font style=&quot;vertical-align: inherit;&quot;&gt;&lt;font style=&quot;vertical-align: inherit;&quot;&gt;&lt;font style=&quot;vertical-align: inherit;&quot;&gt;&lt;font style=&quot;vertical-align: inherit;&quot;&gt;&lt;font style=&quot;vertical-align: inherit;&quot;&gt;Sua média foi &quot; + Media + &quot;. &lt;/font&gt;&lt;/font&gt;&lt;/font&gt;&lt;/font&gt;&lt;/font&gt;&lt;/font&gt;&lt;/font&gt;&lt;/font&gt;&lt;br&gt;&lt;font style=&quot;vertical-align: inherit;&quot;&gt;&lt;font style=&quot;vertical-align: inherit;&quot;&gt;&lt;font style=&quot;vertical-align: inherit;&quot;&gt;&lt;font style=&quot;vertical-align: inherit;&quot;&gt;&lt;font style=&quot;vertical-align: inherit;&quot;&gt;&lt;font style=&quot;vertical-align: inherit;&quot;&gt;&lt;font style=&quot;vertical-align: inherit;&quot;&gt;&lt;font style=&quot;vertical-align: inherit;&quot;&gt;Sua nota maior foi &quot;MiaiorNota&quot;&quot;&lt;/font&gt;&lt;/font&gt;&lt;/font&gt;&lt;/font&gt;&lt;/font&gt;&lt;/font&gt;&lt;/font&gt;&lt;/font&gt;&lt;br&gt;&lt;/font&gt;&lt;/font&gt;&lt;/font&gt;&lt;/font&gt;" style="shape=document;whiteSpace=wrap;html=1;boundedLbl=1;" parent="1" vertex="1">
          <mxGeometry x="-62.5" y="3125" width="190" height="100" as="geometry" />
        </mxCell>
        <mxCell id="YnYCFKzmy0si7NrQEA58-18" value="" style="edgeStyle=orthogonalEdgeStyle;rounded=0;orthogonalLoop=1;jettySize=auto;html=1;exitX=0.516;exitY=0.874;exitDx=0;exitDy=0;exitPerimeter=0;" parent="1" source="YnYCFKzmy0si7NrQEA58-19" target="YnYCFKzmy0si7NrQEA58-13" edge="1">
          <mxGeometry relative="1" as="geometry" />
        </mxCell>
        <mxCell id="YnYCFKzmy0si7NrQEA58-19" value="&lt;font style=&quot;vertical-align: inherit;&quot;&gt;&lt;font style=&quot;vertical-align: inherit;&quot;&gt;&quot;Você foi reprovado! &lt;/font&gt;&lt;/font&gt;&lt;br&gt;&lt;font style=&quot;vertical-align: inherit;&quot;&gt;&lt;font style=&quot;vertical-align: inherit;&quot;&gt;Faltaram &quot; + FaltaramPontos + &quot; pontos para você passar.&quot;&lt;/font&gt;&lt;/font&gt;" style="shape=document;whiteSpace=wrap;html=1;boundedLbl=1;" parent="1" vertex="1">
          <mxGeometry x="-350" y="3050" width="215" height="110" as="geometry" />
        </mxCell>
        <mxCell id="AUrWlwkpLpSwjgOGeYuH-2" value="" style="edgeStyle=orthogonalEdgeStyle;rounded=0;orthogonalLoop=1;jettySize=auto;html=1;" parent="1" source="YnYCFKzmy0si7NrQEA58-20" target="AUrWlwkpLpSwjgOGeYuH-1" edge="1">
          <mxGeometry relative="1" as="geometry" />
        </mxCell>
        <mxCell id="YnYCFKzmy0si7NrQEA58-20" value="&lt;font style=&quot;vertical-align: inherit;&quot;&gt;&lt;font style=&quot;vertical-align: inherit;&quot;&gt;MaiorNota &amp;lt;- N1&lt;/font&gt;&lt;/font&gt;" style="rounded=0;whiteSpace=wrap;html=1;" parent="1" vertex="1">
          <mxGeometry x="-62.5" y="2800" width="180" height="80" as="geometry" />
        </mxCell>
        <mxCell id="AUrWlwkpLpSwjgOGeYuH-4" value="" style="edgeStyle=orthogonalEdgeStyle;rounded=0;orthogonalLoop=1;jettySize=auto;html=1;entryX=0;entryY=0.5;entryDx=0;entryDy=0;" parent="1" source="AUrWlwkpLpSwjgOGeYuH-6" target="AUrWlwkpLpSwjgOGeYuH-29" edge="1">
          <mxGeometry relative="1" as="geometry">
            <mxPoint x="387.5" y="2840" as="targetPoint" />
          </mxGeometry>
        </mxCell>
        <mxCell id="AUrWlwkpLpSwjgOGeYuH-14" value="" style="edgeStyle=orthogonalEdgeStyle;rounded=0;orthogonalLoop=1;jettySize=auto;html=1;" parent="1" source="AUrWlwkpLpSwjgOGeYuH-1" target="AUrWlwkpLpSwjgOGeYuH-11" edge="1">
          <mxGeometry relative="1" as="geometry" />
        </mxCell>
        <mxCell id="AUrWlwkpLpSwjgOGeYuH-1" value="&lt;font style=&quot;vertical-align: inherit;&quot;&gt;&lt;font style=&quot;vertical-align: inherit;&quot;&gt;&lt;font style=&quot;vertical-align: inherit;&quot;&gt;&lt;font style=&quot;vertical-align: inherit;&quot;&gt;Se N2&amp;gt; MaiorNota&lt;br&gt;&lt;/font&gt;&lt;/font&gt;&lt;/font&gt;&lt;/font&gt;" style="rhombus;whiteSpace=wrap;html=1;rounded=0;" parent="1" vertex="1">
          <mxGeometry x="170" y="2780" width="170" height="120" as="geometry" />
        </mxCell>
        <mxCell id="AUrWlwkpLpSwjgOGeYuH-8" value="Não" style="rounded=0;html=1;strokeWidth=1;opacity=50;strokeColor=none;fillColor=#FFFFFF;fontColor=#ffffff;labelBackgroundColor=#000000;fontSize=15;" parent="1" vertex="1">
          <mxGeometry x="170" y="2902.5" width="70" height="50" as="geometry" />
        </mxCell>
        <mxCell id="AUrWlwkpLpSwjgOGeYuH-22" value="" style="edgeStyle=orthogonalEdgeStyle;rounded=0;orthogonalLoop=1;jettySize=auto;html=1;" parent="1" source="AUrWlwkpLpSwjgOGeYuH-11" target="AUrWlwkpLpSwjgOGeYuH-19" edge="1">
          <mxGeometry relative="1" as="geometry" />
        </mxCell>
        <mxCell id="AUrWlwkpLpSwjgOGeYuH-32" value="" style="edgeStyle=orthogonalEdgeStyle;rounded=0;orthogonalLoop=1;jettySize=auto;html=1;" parent="1" source="AUrWlwkpLpSwjgOGeYuH-13" target="AUrWlwkpLpSwjgOGeYuH-31" edge="1">
          <mxGeometry relative="1" as="geometry" />
        </mxCell>
        <mxCell id="AUrWlwkpLpSwjgOGeYuH-11" value="&lt;font style=&quot;vertical-align: inherit;&quot;&gt;&lt;font style=&quot;vertical-align: inherit;&quot;&gt;&lt;font style=&quot;vertical-align: inherit;&quot;&gt;&lt;font style=&quot;vertical-align: inherit;&quot;&gt;&lt;font style=&quot;vertical-align: inherit;&quot;&gt;&lt;font style=&quot;vertical-align: inherit;&quot;&gt;Se N3&amp;gt; MaiorNota&lt;/font&gt;&lt;/font&gt;&lt;/font&gt;&lt;/font&gt;&lt;/font&gt;&lt;/font&gt;" style="rhombus;whiteSpace=wrap;html=1;rounded=0;" parent="1" vertex="1">
          <mxGeometry x="170" y="2960" width="170" height="120" as="geometry" />
        </mxCell>
        <mxCell id="AUrWlwkpLpSwjgOGeYuH-25" value="" style="edgeStyle=orthogonalEdgeStyle;rounded=0;orthogonalLoop=1;jettySize=auto;html=1;" parent="1" source="AUrWlwkpLpSwjgOGeYuH-19" target="YnYCFKzmy0si7NrQEA58-17" edge="1">
          <mxGeometry relative="1" as="geometry" />
        </mxCell>
        <mxCell id="AUrWlwkpLpSwjgOGeYuH-37" value="" style="edgeStyle=orthogonalEdgeStyle;rounded=0;orthogonalLoop=1;jettySize=auto;html=1;" parent="1" source="AUrWlwkpLpSwjgOGeYuH-21" target="AUrWlwkpLpSwjgOGeYuH-36" edge="1">
          <mxGeometry relative="1" as="geometry" />
        </mxCell>
        <mxCell id="AUrWlwkpLpSwjgOGeYuH-19" value="&lt;font style=&quot;vertical-align: inherit;&quot;&gt;&lt;font style=&quot;vertical-align: inherit;&quot;&gt;&lt;font style=&quot;vertical-align: inherit;&quot;&gt;&lt;font style=&quot;vertical-align: inherit;&quot;&gt;&lt;font style=&quot;vertical-align: inherit;&quot;&gt;&lt;font style=&quot;vertical-align: inherit;&quot;&gt;&lt;font style=&quot;vertical-align: inherit;&quot;&gt;&lt;font style=&quot;vertical-align: inherit;&quot;&gt;Se N4&amp;gt; MaiorNota&lt;/font&gt;&lt;/font&gt;&lt;/font&gt;&lt;/font&gt;&lt;/font&gt;&lt;/font&gt;&lt;/font&gt;&lt;/font&gt;" style="rhombus;whiteSpace=wrap;html=1;rounded=0;" parent="1" vertex="1">
          <mxGeometry x="170" y="3115" width="170" height="120" as="geometry" />
        </mxCell>
        <mxCell id="AUrWlwkpLpSwjgOGeYuH-23" value="Não" style="rounded=0;html=1;strokeWidth=1;opacity=50;strokeColor=none;fillColor=#FFFFFF;fontColor=#ffffff;labelBackgroundColor=#000000;fontSize=15;" parent="1" vertex="1">
          <mxGeometry x="170" y="3075" width="70" height="50" as="geometry" />
        </mxCell>
        <mxCell id="AUrWlwkpLpSwjgOGeYuH-30" style="edgeStyle=orthogonalEdgeStyle;rounded=0;orthogonalLoop=1;jettySize=auto;html=1;" parent="1" source="AUrWlwkpLpSwjgOGeYuH-29" target="AUrWlwkpLpSwjgOGeYuH-11" edge="1">
          <mxGeometry relative="1" as="geometry">
            <mxPoint x="340" y="3020" as="targetPoint" />
            <Array as="points">
              <mxPoint x="480" y="2940" />
              <mxPoint x="340" y="2940" />
            </Array>
          </mxGeometry>
        </mxCell>
        <mxCell id="AUrWlwkpLpSwjgOGeYuH-29" value="&lt;font style=&quot;vertical-align: inherit;&quot;&gt;&lt;font style=&quot;vertical-align: inherit;&quot;&gt;&lt;font style=&quot;vertical-align: inherit;&quot;&gt;&lt;font style=&quot;vertical-align: inherit;&quot;&gt;MaiorNota &amp;lt;- N2&lt;/font&gt;&lt;/font&gt;&lt;/font&gt;&lt;/font&gt;" style="rounded=0;whiteSpace=wrap;html=1;" parent="1" vertex="1">
          <mxGeometry x="440" y="2800" width="180" height="80" as="geometry" />
        </mxCell>
        <mxCell id="AUrWlwkpLpSwjgOGeYuH-34" style="edgeStyle=orthogonalEdgeStyle;rounded=0;orthogonalLoop=1;jettySize=auto;html=1;" parent="1" source="AUrWlwkpLpSwjgOGeYuH-31" target="AUrWlwkpLpSwjgOGeYuH-19" edge="1">
          <mxGeometry relative="1" as="geometry">
            <mxPoint x="290" y="3150" as="targetPoint" />
            <Array as="points">
              <mxPoint x="540" y="3110" />
              <mxPoint x="340" y="3110" />
            </Array>
          </mxGeometry>
        </mxCell>
        <mxCell id="AUrWlwkpLpSwjgOGeYuH-31" value="&lt;font style=&quot;vertical-align: inherit;&quot;&gt;&lt;font style=&quot;vertical-align: inherit;&quot;&gt;&lt;font style=&quot;vertical-align: inherit;&quot;&gt;&lt;font style=&quot;vertical-align: inherit;&quot;&gt;&lt;font style=&quot;vertical-align: inherit;&quot;&gt;&lt;font style=&quot;vertical-align: inherit;&quot;&gt;MaiorNota &amp;lt;- N3&lt;/font&gt;&lt;/font&gt;&lt;/font&gt;&lt;/font&gt;&lt;/font&gt;&lt;/font&gt;" style="rounded=0;whiteSpace=wrap;html=1;" parent="1" vertex="1">
          <mxGeometry x="450" y="2980" width="180" height="80" as="geometry" />
        </mxCell>
        <mxCell id="AUrWlwkpLpSwjgOGeYuH-39" style="edgeStyle=orthogonalEdgeStyle;rounded=0;orthogonalLoop=1;jettySize=auto;html=1;entryX=0.55;entryY=0.828;entryDx=0;entryDy=0;entryPerimeter=0;" parent="1" source="AUrWlwkpLpSwjgOGeYuH-36" target="YnYCFKzmy0si7NrQEA58-17" edge="1">
          <mxGeometry relative="1" as="geometry">
            <Array as="points">
              <mxPoint x="530" y="3250" />
              <mxPoint x="42" y="3250" />
            </Array>
          </mxGeometry>
        </mxCell>
        <mxCell id="AUrWlwkpLpSwjgOGeYuH-36" value="&lt;font style=&quot;vertical-align: inherit;&quot;&gt;&lt;font style=&quot;vertical-align: inherit;&quot;&gt;&lt;font style=&quot;vertical-align: inherit;&quot;&gt;&lt;font style=&quot;vertical-align: inherit;&quot;&gt;&lt;font style=&quot;vertical-align: inherit;&quot;&gt;&lt;font style=&quot;vertical-align: inherit;&quot;&gt;&lt;font style=&quot;vertical-align: inherit;&quot;&gt;&lt;font style=&quot;vertical-align: inherit;&quot;&gt;MaiorNota &amp;lt;- N4&lt;/font&gt;&lt;/font&gt;&lt;/font&gt;&lt;/font&gt;&lt;/font&gt;&lt;/font&gt;&lt;/font&gt;&lt;/font&gt;" style="rounded=0;whiteSpace=wrap;html=1;" parent="1" vertex="1">
          <mxGeometry x="440" y="3135" width="180" height="80" as="geometry" />
        </mxCell>
        <mxCell id="AUrWlwkpLpSwjgOGeYuH-40" value="" style="edgeStyle=orthogonalEdgeStyle;rounded=0;orthogonalLoop=1;jettySize=auto;html=1;" parent="1" source="AUrWlwkpLpSwjgOGeYuH-19" target="AUrWlwkpLpSwjgOGeYuH-21" edge="1">
          <mxGeometry relative="1" as="geometry">
            <mxPoint x="340" y="3175" as="sourcePoint" />
            <mxPoint x="440" y="3175" as="targetPoint" />
          </mxGeometry>
        </mxCell>
        <mxCell id="AUrWlwkpLpSwjgOGeYuH-21" value="Sim" style="rounded=0;html=1;strokeWidth=1;opacity=50;strokeColor=none;fillColor=#FFFFFF;fontColor=#ffffff;labelBackgroundColor=#000000;fontSize=15;" parent="1" vertex="1">
          <mxGeometry x="360" y="3150" width="60" height="50" as="geometry" />
        </mxCell>
        <mxCell id="AUrWlwkpLpSwjgOGeYuH-41" value="" style="edgeStyle=orthogonalEdgeStyle;rounded=0;orthogonalLoop=1;jettySize=auto;html=1;" parent="1" source="AUrWlwkpLpSwjgOGeYuH-11" target="AUrWlwkpLpSwjgOGeYuH-13" edge="1">
          <mxGeometry relative="1" as="geometry">
            <mxPoint x="340" y="3020" as="sourcePoint" />
            <mxPoint x="450" y="3020" as="targetPoint" />
          </mxGeometry>
        </mxCell>
        <mxCell id="AUrWlwkpLpSwjgOGeYuH-13" value="Sim" style="rounded=0;html=1;strokeWidth=1;opacity=50;strokeColor=none;fillColor=#FFFFFF;fontColor=#ffffff;labelBackgroundColor=#000000;fontSize=15;" parent="1" vertex="1">
          <mxGeometry x="370" y="2995" width="60" height="50" as="geometry" />
        </mxCell>
        <mxCell id="AUrWlwkpLpSwjgOGeYuH-43" value="" style="edgeStyle=orthogonalEdgeStyle;rounded=0;orthogonalLoop=1;jettySize=auto;html=1;entryX=0;entryY=0.5;entryDx=0;entryDy=0;" parent="1" source="AUrWlwkpLpSwjgOGeYuH-1" target="AUrWlwkpLpSwjgOGeYuH-6" edge="1">
          <mxGeometry relative="1" as="geometry">
            <mxPoint x="340" y="2840" as="sourcePoint" />
            <mxPoint x="440" y="2840" as="targetPoint" />
          </mxGeometry>
        </mxCell>
        <mxCell id="AUrWlwkpLpSwjgOGeYuH-6" value="Sim" style="rounded=0;html=1;strokeWidth=1;opacity=50;strokeColor=none;fillColor=#FFFFFF;fontColor=#ffffff;labelBackgroundColor=#000000;fontSize=15;" parent="1" vertex="1">
          <mxGeometry x="360" y="2815" width="60" height="50" as="geometry" />
        </mxCell>
      </root>
    </mxGraphModel>
  </diagram>
</mxfile>
